<mxfile host="app.diagrams.net" modified="2023-11-20T14:27:32.233Z" agent="Mozilla/5.0 (Windows NT 10.0; Win64; x64) AppleWebKit/537.36 (KHTML, like Gecko) Chrome/117.0.0.0 Safari/537.36" etag="tE-iZhSz4VNbQwy-51Hf" version="22.1.3" type="github">
  <diagram id="R2lEEEUBdFMjLlhIrx00" name="Page-1">
    <mxGraphModel dx="1728" dy="2063" grid="1" gridSize="10" guides="1" tooltips="1" connect="1" arrows="1" fold="1" page="1" pageScale="1" pageWidth="850" pageHeight="1100" math="0" shadow="0" extFonts="Permanent Marker^https://fonts.googleapis.com/css?family=Permanent+Marker">
      <root>
        <mxCell id="0" />
        <mxCell id="1" parent="0" />
        <mxCell id="1X2i5WTmydFccMxex6lj-3" value="" style="edgeStyle=orthogonalEdgeStyle;rounded=0;orthogonalLoop=1;jettySize=auto;html=1;" edge="1" parent="1" source="1X2i5WTmydFccMxex6lj-1" target="1X2i5WTmydFccMxex6lj-2">
          <mxGeometry relative="1" as="geometry" />
        </mxCell>
        <mxCell id="1X2i5WTmydFccMxex6lj-7" value="" style="edgeStyle=orthogonalEdgeStyle;rounded=0;orthogonalLoop=1;jettySize=auto;html=1;" edge="1" parent="1" source="1X2i5WTmydFccMxex6lj-1" target="1X2i5WTmydFccMxex6lj-6">
          <mxGeometry relative="1" as="geometry" />
        </mxCell>
        <mxCell id="1X2i5WTmydFccMxex6lj-47" style="edgeStyle=orthogonalEdgeStyle;rounded=0;orthogonalLoop=1;jettySize=auto;html=1;" edge="1" parent="1" source="1X2i5WTmydFccMxex6lj-1" target="1X2i5WTmydFccMxex6lj-46">
          <mxGeometry relative="1" as="geometry" />
        </mxCell>
        <mxCell id="1X2i5WTmydFccMxex6lj-1" value="Телефонные&lt;br/&gt;переговоры" style="rounded=0;whiteSpace=wrap;html=1;" vertex="1" parent="1">
          <mxGeometry x="360" y="260" width="120" height="60" as="geometry" />
        </mxCell>
        <mxCell id="1X2i5WTmydFccMxex6lj-11" value="" style="edgeStyle=orthogonalEdgeStyle;rounded=0;orthogonalLoop=1;jettySize=auto;html=1;" edge="1" parent="1" source="1X2i5WTmydFccMxex6lj-2" target="1X2i5WTmydFccMxex6lj-10">
          <mxGeometry relative="1" as="geometry" />
        </mxCell>
        <mxCell id="1X2i5WTmydFccMxex6lj-2" value="между" style="rhombus;whiteSpace=wrap;html=1;rounded=0;" vertex="1" parent="1">
          <mxGeometry x="380" y="380" width="80" height="80" as="geometry" />
        </mxCell>
        <mxCell id="1X2i5WTmydFccMxex6lj-9" value="" style="edgeStyle=orthogonalEdgeStyle;rounded=0;orthogonalLoop=1;jettySize=auto;html=1;" edge="1" parent="1" source="1X2i5WTmydFccMxex6lj-6" target="1X2i5WTmydFccMxex6lj-8">
          <mxGeometry relative="1" as="geometry" />
        </mxCell>
        <mxCell id="1X2i5WTmydFccMxex6lj-37" value="" style="edgeStyle=orthogonalEdgeStyle;rounded=0;orthogonalLoop=1;jettySize=auto;html=1;exitX=1;exitY=0.5;exitDx=0;exitDy=0;" edge="1" parent="1" source="1X2i5WTmydFccMxex6lj-46" target="1X2i5WTmydFccMxex6lj-36">
          <mxGeometry relative="1" as="geometry" />
        </mxCell>
        <mxCell id="1X2i5WTmydFccMxex6lj-6" value="позвонить" style="rhombus;whiteSpace=wrap;html=1;rounded=0;" vertex="1" parent="1">
          <mxGeometry x="380" y="120" width="80" height="80" as="geometry" />
        </mxCell>
        <mxCell id="1X2i5WTmydFccMxex6lj-15" value="" style="edgeStyle=orthogonalEdgeStyle;rounded=0;orthogonalLoop=1;jettySize=auto;html=1;" edge="1" parent="1" source="1X2i5WTmydFccMxex6lj-8" target="1X2i5WTmydFccMxex6lj-16">
          <mxGeometry relative="1" as="geometry">
            <mxPoint x="260" y="-9.999999999999773" as="targetPoint" />
          </mxGeometry>
        </mxCell>
        <mxCell id="1X2i5WTmydFccMxex6lj-19" value="" style="edgeStyle=orthogonalEdgeStyle;rounded=0;orthogonalLoop=1;jettySize=auto;html=1;entryX=0;entryY=0.5;entryDx=0;entryDy=0;" edge="1" parent="1" source="1X2i5WTmydFccMxex6lj-8" target="1X2i5WTmydFccMxex6lj-20">
          <mxGeometry relative="1" as="geometry">
            <mxPoint x="580" y="-9.999999999999773" as="targetPoint" />
          </mxGeometry>
        </mxCell>
        <mxCell id="1X2i5WTmydFccMxex6lj-24" value="" style="edgeStyle=orthogonalEdgeStyle;rounded=0;orthogonalLoop=1;jettySize=auto;html=1;" edge="1" parent="1" source="1X2i5WTmydFccMxex6lj-8" target="1X2i5WTmydFccMxex6lj-23">
          <mxGeometry relative="1" as="geometry" />
        </mxCell>
        <mxCell id="1X2i5WTmydFccMxex6lj-26" style="edgeStyle=orthogonalEdgeStyle;rounded=0;orthogonalLoop=1;jettySize=auto;html=1;exitX=0;exitY=0;exitDx=0;exitDy=0;" edge="1" parent="1" source="1X2i5WTmydFccMxex6lj-8" target="1X2i5WTmydFccMxex6lj-25">
          <mxGeometry relative="1" as="geometry" />
        </mxCell>
        <mxCell id="1X2i5WTmydFccMxex6lj-41" style="edgeStyle=orthogonalEdgeStyle;rounded=0;orthogonalLoop=1;jettySize=auto;html=1;exitX=1;exitY=0;exitDx=0;exitDy=0;entryX=0.5;entryY=1;entryDx=0;entryDy=0;" edge="1" parent="1" source="1X2i5WTmydFccMxex6lj-8" target="1X2i5WTmydFccMxex6lj-40">
          <mxGeometry relative="1" as="geometry" />
        </mxCell>
        <mxCell id="1X2i5WTmydFccMxex6lj-8" value="абонет" style="whiteSpace=wrap;html=1;rounded=0;" vertex="1" parent="1">
          <mxGeometry x="360" y="20" width="120" height="60" as="geometry" />
        </mxCell>
        <mxCell id="1X2i5WTmydFccMxex6lj-31" style="edgeStyle=orthogonalEdgeStyle;rounded=0;orthogonalLoop=1;jettySize=auto;html=1;exitX=0;exitY=0.5;exitDx=0;exitDy=0;entryX=1;entryY=0.5;entryDx=0;entryDy=0;" edge="1" parent="1" source="1X2i5WTmydFccMxex6lj-10" target="1X2i5WTmydFccMxex6lj-30">
          <mxGeometry relative="1" as="geometry" />
        </mxCell>
        <mxCell id="1X2i5WTmydFccMxex6lj-33" style="edgeStyle=orthogonalEdgeStyle;rounded=0;orthogonalLoop=1;jettySize=auto;html=1;exitX=1;exitY=0.5;exitDx=0;exitDy=0;entryX=0;entryY=0.5;entryDx=0;entryDy=0;" edge="1" parent="1" source="1X2i5WTmydFccMxex6lj-10" target="1X2i5WTmydFccMxex6lj-32">
          <mxGeometry relative="1" as="geometry" />
        </mxCell>
        <mxCell id="1X2i5WTmydFccMxex6lj-10" value="разговор" style="whiteSpace=wrap;html=1;rounded=0;" vertex="1" parent="1">
          <mxGeometry x="360" y="520" width="120" height="60" as="geometry" />
        </mxCell>
        <mxCell id="1X2i5WTmydFccMxex6lj-16" value="Имя&lt;br/&gt;абонента" style="ellipse;whiteSpace=wrap;html=1;" vertex="1" parent="1">
          <mxGeometry x="140" y="10.000000000000227" width="120" height="80" as="geometry" />
        </mxCell>
        <mxCell id="1X2i5WTmydFccMxex6lj-20" value="Отчество&lt;br/&gt;абонента" style="ellipse;whiteSpace=wrap;html=1;" vertex="1" parent="1">
          <mxGeometry x="600" y="10" width="120" height="80" as="geometry" />
        </mxCell>
        <mxCell id="1X2i5WTmydFccMxex6lj-23" value="Фамилия&lt;br/&gt;абонента" style="ellipse;whiteSpace=wrap;html=1;" vertex="1" parent="1">
          <mxGeometry x="360" y="-200" width="120" height="80" as="geometry" />
        </mxCell>
        <mxCell id="1X2i5WTmydFccMxex6lj-25" value="Телефонный&lt;br/&gt;номер абонента" style="ellipse;whiteSpace=wrap;html=1;" vertex="1" parent="1">
          <mxGeometry x="200" y="-160" width="120" height="80" as="geometry" />
        </mxCell>
        <mxCell id="1X2i5WTmydFccMxex6lj-27" value="Телефонный&lt;br/&gt;код того города, куда звонил абонент" style="ellipse;whiteSpace=wrap;html=1;" vertex="1" parent="1">
          <mxGeometry x="830" y="250" width="120" height="80" as="geometry" />
        </mxCell>
        <mxCell id="1X2i5WTmydFccMxex6lj-30" value="Дата разговора" style="ellipse;whiteSpace=wrap;html=1;" vertex="1" parent="1">
          <mxGeometry x="160" y="510" width="120" height="80" as="geometry" />
        </mxCell>
        <mxCell id="1X2i5WTmydFccMxex6lj-32" value="Продолжительность&lt;br/&gt;разговора" style="ellipse;whiteSpace=wrap;html=1;" vertex="1" parent="1">
          <mxGeometry x="560" y="510" width="120" height="80" as="geometry" />
        </mxCell>
        <mxCell id="1X2i5WTmydFccMxex6lj-34" value="Название&lt;br/&gt;того города, куда звонил абонент" style="ellipse;whiteSpace=wrap;html=1;" vertex="1" parent="1">
          <mxGeometry x="670" y="360" width="120" height="80" as="geometry" />
        </mxCell>
        <mxCell id="1X2i5WTmydFccMxex6lj-38" style="edgeStyle=orthogonalEdgeStyle;rounded=0;orthogonalLoop=1;jettySize=auto;html=1;" edge="1" parent="1" source="1X2i5WTmydFccMxex6lj-36" target="1X2i5WTmydFccMxex6lj-34">
          <mxGeometry relative="1" as="geometry" />
        </mxCell>
        <mxCell id="1X2i5WTmydFccMxex6lj-39" style="edgeStyle=orthogonalEdgeStyle;rounded=0;orthogonalLoop=1;jettySize=auto;html=1;exitX=1;exitY=0.5;exitDx=0;exitDy=0;entryX=0;entryY=0.5;entryDx=0;entryDy=0;" edge="1" parent="1" source="1X2i5WTmydFccMxex6lj-36" target="1X2i5WTmydFccMxex6lj-27">
          <mxGeometry relative="1" as="geometry" />
        </mxCell>
        <mxCell id="1X2i5WTmydFccMxex6lj-49" style="edgeStyle=orthogonalEdgeStyle;rounded=0;orthogonalLoop=1;jettySize=auto;html=1;entryX=0.5;entryY=1;entryDx=0;entryDy=0;" edge="1" parent="1" source="1X2i5WTmydFccMxex6lj-36" target="1X2i5WTmydFccMxex6lj-50">
          <mxGeometry relative="1" as="geometry">
            <mxPoint x="730" y="210" as="targetPoint" />
          </mxGeometry>
        </mxCell>
        <mxCell id="1X2i5WTmydFccMxex6lj-36" value="город" style="whiteSpace=wrap;html=1;rounded=0;" vertex="1" parent="1">
          <mxGeometry x="670" y="260" width="120" height="60" as="geometry" />
        </mxCell>
        <mxCell id="1X2i5WTmydFccMxex6lj-40" value="Домашний&lt;br/&gt;адрес абонента" style="ellipse;whiteSpace=wrap;html=1;" vertex="1" parent="1">
          <mxGeometry x="520" y="-160" width="120" height="80" as="geometry" />
        </mxCell>
        <mxCell id="1X2i5WTmydFccMxex6lj-42" value="N" style="text;html=1;align=center;verticalAlign=middle;resizable=0;points=[];autosize=1;strokeColor=none;fillColor=none;" vertex="1" parent="1">
          <mxGeometry x="415" y="220" width="30" height="30" as="geometry" />
        </mxCell>
        <mxCell id="1X2i5WTmydFccMxex6lj-43" value="1" style="text;html=1;align=center;verticalAlign=middle;resizable=0;points=[];autosize=1;strokeColor=none;fillColor=none;" vertex="1" parent="1">
          <mxGeometry x="415" y="88" width="30" height="30" as="geometry" />
        </mxCell>
        <mxCell id="1X2i5WTmydFccMxex6lj-44" value="N" style="text;html=1;align=center;verticalAlign=middle;resizable=0;points=[];autosize=1;strokeColor=none;fillColor=none;" vertex="1" parent="1">
          <mxGeometry x="500" y="260" width="30" height="30" as="geometry" />
        </mxCell>
        <mxCell id="1X2i5WTmydFccMxex6lj-46" value="куда звонил абонен" style="rhombus;whiteSpace=wrap;html=1;" vertex="1" parent="1">
          <mxGeometry x="540" y="250" width="80" height="80" as="geometry" />
        </mxCell>
        <mxCell id="1X2i5WTmydFccMxex6lj-48" value="1" style="text;html=1;align=center;verticalAlign=middle;resizable=0;points=[];autosize=1;strokeColor=none;fillColor=none;" vertex="1" parent="1">
          <mxGeometry x="630" y="260" width="30" height="30" as="geometry" />
        </mxCell>
        <mxCell id="1X2i5WTmydFccMxex6lj-50" value="Тариф&lt;br/&gt;за 1 минуту разговора с указанным городом" style="ellipse;whiteSpace=wrap;html=1;" vertex="1" parent="1">
          <mxGeometry x="670" y="130" width="120" height="80" as="geometry" />
        </mxCell>
        <mxCell id="1X2i5WTmydFccMxex6lj-51" value="N" style="text;html=1;align=center;verticalAlign=middle;resizable=0;points=[];autosize=1;strokeColor=none;fillColor=none;" vertex="1" parent="1">
          <mxGeometry x="415" y="328" width="30" height="30" as="geometry" />
        </mxCell>
        <mxCell id="1X2i5WTmydFccMxex6lj-52" value="1" style="text;html=1;align=center;verticalAlign=middle;resizable=0;points=[];autosize=1;strokeColor=none;fillColor=none;" vertex="1" parent="1">
          <mxGeometry x="415" y="468" width="30" height="30" as="geometry" />
        </mxCell>
      </root>
    </mxGraphModel>
  </diagram>
</mxfile>
